<svg
  id="Camada_1"
  data-name="Camada 1"
  xmlns="http://www.w3.org/2000/svg"
  viewBox="0 0 461.37 307.95"
><defs><style
    >.cls-1{fill:#fcd146;}.cls-2{fill:#0a3b5f;}.cls-3{fill:#17888c;}.cls-4{fill:#f6a50f;}.cls-5{fill:#d3eaeb;}.cls-6{fill:#212b53;}.cls-7{fill:#0a3b5e;}.cls-8{fill:#cbe7eb;}.cls-9{fill:#cde8eb;}.cls-10{fill:#afd7c5;}.cls-11{fill:#b0d7c5;}.cls-12{fill:#d9ecea;}.cls-13{fill:#18878c;}.cls-14{fill:#02696f;}.cls-15{fill:#d8edf1;}.cls-16{fill:#093c5d;}.cls-17{fill:#18898c;}.cls-18{fill:#60c0c3;}.cls-19{fill:#222b54;}.cls-20{fill:#cae7ec;}.cls-21{fill:#cae6eb;}.cls-22{fill:#d1eaef;}.cls-23{fill:#b0d7c9;}.cls-24{fill:#cbe6ec;}.cls-25{fill:#cde7ec;}.cls-26{fill:#6dbfc0;}.cls-27{fill:#d3e9eb;}.cls-28{fill:#1c868b;}.cls-29{fill:#d9ebe9;}.cls-30{fill:#ddeee8;}.cls-31{fill:#eeb696;}.cls-32{fill:#d2e9ea;}.cls-33{fill:#ddeee9;}.cls-34{fill:#d7ebe8;}.cls-35{fill:#edb99d;}.cls-36{fill:#237d8e;}.cls-37{fill:#1e4155;}.cls-38{fill:#6abcbf;}.cls-39{fill:#3a3b5b;}.cls-40{fill:#85c4bd;}.cls-41{fill:#4d5066;}.cls-42{fill:#343449;}.cls-43{fill:#aad6d7;}.cls-44{fill:#98c4c0;}.cls-45{fill:#91c6bf;}.cls-46{fill:#86c6c4;}.cls-47{fill:#99c8c4;}.cls-48{fill:#83ccc1;}.cls-49{fill:#9fc7c2;}.cls-50{fill:#9abfbc;}.cls-51{fill:#91c1bd;}.cls-52{fill:#8fc8c1;}.cls-53{fill:#9fc7c3;}.cls-54{fill:#91c9c3;}.cls-55{fill:#94c4c1;}.cls-56{fill:#94c2bf;}.cls-57{fill:#9ac5bf;}.cls-58{fill:#9cc2c1;}.cls-59{fill:#85c4bc;}.cls-60{fill:#93bcbb;}.cls-61{fill:#93c6c4;}.cls-62{fill:#90b8b9;}.cls-63{fill:#8bc4b7;}.cls-64{fill:#94c6c2;}.cls-65{fill:#93c7c1;}.cls-66{fill:#8cc1b8;}.cls-67{fill:#94bdba;}.cls-68{fill:#8cc2bc;}.cls-69{fill:#73cbba;}.cls-70{fill:#a5ccc7;}.cls-71{fill:#a3c9c7;}.cls-72{fill:#62c0c4;}.cls-73{fill:#18888c;}.cls-74{fill:#fefefe;}.cls-75{fill:#c8e6ec;}.cls-76{fill:#dceeea;}.cls-77{fill:#dcede9;}.cls-78{fill:#cfe9eb;}.cls-79{fill:#03676d;}.cls-80{fill:#04656a;}.cls-81{fill:#0a3c5d;}.cls-82{fill:#1d808c;}.cls-83{fill:#eaac1a;}.cls-84{fill:#413b40;}.cls-85{fill:#34463f;}.cls-86{fill:#37333e;}.cls-87{fill:#419173;}.cls-88{fill:#dbbd86;}.cls-89{fill:#213d3d;}.cls-90{fill:#25344a;}.cls-91{fill:#3e343b;}.cls-92{fill:#eedc9c;}.cls-93{fill:#19898c;}.cls-94{fill:#202b54;}.cls-95{fill:#202e52;}.cls-96{fill:#eeb58e;}.cls-97{fill:#cfebea;}.cls-98{fill:#d9eeeb;}.cls-99{fill:#e9af93;}.cls-100{fill:#bcb3a1;}.cls-101{fill:#d1eaeb;}.cls-102{fill:#eefbf7;}.cls-103{fill:#e6b095;}.cls-104{fill:#63bfc3;}.cls-105{fill:#2a2f4d;}.cls-106{fill:#ebcd51;}.cls-107{fill:#d4a48f;}.cls-108{fill:#d5b198;}.cls-109{fill:#2c7d76;}.cls-110{fill:#c7b095;}.cls-111{fill:#99e6ef;}.cls-112{fill:#eab997;}.cls-113{fill:#222d54;}.cls-114{fill:#e9af96;}.cls-115{fill:#bbd5c4;}.cls-116{fill:#0a435f;}.cls-117{fill:#04676c;}.cls-118{fill:#b5d5c5;}.cls-119{fill:#212b52;}.cls-120{fill:#01656b;}.cls-121{fill:#223255;}.cls-122{fill:#efb392;}.cls-123{fill:#d6b8a2;}.cls-124{fill:#d7ae9e;}.cls-125{fill:#c5e1e4;}.cls-126{fill:#c3e4ed;}.cls-127{fill:#d2eaeb;}.cls-128{fill:#277c85;}.cls-129{fill:#dbad9c;}</style></defs><path
    class="cls-1"
    d="M115.06,350.57c-1.47-1.63.87-3,.35-4.51,3.73-6.79,8-13.25,11.61-20.12.39-.7.88-1.33,1.29-2,1.88-3.31,4.05-6.45,5.79-9.85a16.55,16.55,0,0,0,1.24-2.12c3.45-6.3,7.37-12.33,10.84-18.63a5.48,5.48,0,0,1,5.5-3.21c2.46.15,4.86-.75,7.34-.58,1.48-.05,3,.19,4.41-.32.74-.21,1.52-.2,2.26-.42,3.52-.68,7.15-.28,10.65-1.13a1.92,1.92,0,0,1,1.83.53c.77,1.21.19,2.39-.18,3.52-1.66,5-3,10.16-4.85,15.11a6.43,6.43,0,0,0-.36,1.37c-.07.55-.19,1.2.5,1.44s1.05-.27,1.4-.73a13.16,13.16,0,0,0,1.1-2c3-6,6.05-12,8.16-18.36.25-.77.44-1.71,1.55-1.77,2,1.39,2.17,3.43,1.84,5.57a73.78,73.78,0,0,0-.88,13.85,14.51,14.51,0,0,0,.09,2c.08.47.15,1.05.66,1.16.74.16.9-.53,1.08-1.05a38,38,0,0,0,2-9.12c.31-4,1.72-7.78,1.38-11.8a2.39,2.39,0,0,1,2.63-2.36c3.81,0,7.32-1.45,11-2.26,7.52-.86,14.81-2.88,22.21-4.32a13.39,13.39,0,0,1,4.16-.65c1.35.33,1.47,1,.51,1.94s-2.29,1.32-3.11,3.08c6.18-.7,11-3,14.55-7.84,1.51-.75,3-1.58,4.75-.58,1,1.78.68,3.69.33,5.52-.71,3.78.44,7.43.67,11.2a4.73,4.73,0,0,0,1.3-3.45c.33-3.46,1.27-6.83,1.48-10.32a7.65,7.65,0,0,1,1.68-5,78.07,78.07,0,0,0,14.77-4.06,4.15,4.15,0,0,1,2.6-1.57c11.92-3.35,23.59-7.48,35.2-11.77,1.05-.38,2.09-.94,3.28-.57,2.19,3.13,2,6.92,2.85,10.41-.81,1.18,1,1.78.65,2.87-.87,1.51-.7,2.54,1.28,2.63,1.13,0,2.21.47,3.34.45.51,0,1.22,0,.89-.89-.84-.55-1.85-.24-2.71-.6-1.5-.61-2.65-1.44-1.88-3.35.59-1.43.28-2.92.28-4.4a31.76,31.76,0,0,1,.56-7.28c.15-.89,0-1.93,1.12-2.39,6.24-2,12.19-4.77,18.25-7.24.31-.12.49-.55.73-.83a6.78,6.78,0,0,1,.67-.53c13.37-5.72,26.29-12.38,39.29-18.86,1.16-.58,2.24-1.44,3.65-1.37,1.09.43,1.66,1.48,2.56,2.14.52.39,1.08.9,1.75.44s.33-1,.26-1.55c-.13-1-.55-2-.08-3,.82-1.36,2.36-1.73,3.52-2.62,9.37-5.27,18.71-10.6,27.74-16.44,4.29-2.21,7.94-5.43,12.22-7.64,1.42-1.15,2.92-2.19,4.38-3.28a84.68,84.68,0,0,0,8.27-5.68,35.6,35.6,0,0,0,6-4.4,98.12,98.12,0,0,1,8.39-5.62c.47-.47,2.39-.43.58-1.69-2.55-1.65-4.46-4-6.58-6.07-.52-.52-1.09-1.12-.75-2s1.15-.9,1.89-.94c1.86-.1,3.75,0,5.45-1a34.26,34.26,0,0,1,6-.29c2.64.06,5.33-.45,7.88.64,1.15,1.61.73,3.45.79,5.23-1.1,5.21-.14,10.53-.82,15.77-1.06,2-2.15.75-3-.12a7.1,7.1,0,0,0-4.63-2.58c-.51-.72.05-2.18-1.3-2.22-1,0-1.24,1-1.67,1.76a234.22,234.22,0,0,1-27.67,37.29,278,278,0,0,1-30.53,29.21,351.13,351.13,0,0,1-36.21,25.92,427.81,427.81,0,0,1-46,24.59c-10.13,4.69-20.47,8.89-30.89,12.92q-20.53,7.94-41.65,14.1c-14,4.08-28.08,7.76-42.34,10.86q-14.7,3.2-29.49,6c-8.44,1.6-17,2.75-25.51,4C136.49,348.31,125.74,349.18,115.06,350.57Z"
    transform="translate(-68.57 -53.4)"
  /><path
    class="cls-2"
    d="M427,194.67c-4.09,2.67-8,5.56-12.39,7.82-1.3-.31-1.36-1.47-1.58-2.44a166.64,166.64,0,0,1-4.41-32.53,197,197,0,0,1,1.73-35.59c.21-1.4.44-2.8.75-4.18a152.07,152.07,0,0,1,6.77-25.43c.44-1.23.68-2.59,1.9-3.38,3.81-8.55,7.85-17,13.6-24.43,4.65-6,9.93-11.43,16.51-15.37,15.12-9.07,31.94-7.32,45.91,4.71,11,9.44,18.07,21.52,23.26,34.76,9.06,23.09,12,47.11,10.52,71.78-1.13,18.93-4.92,37.22-12.67,54.6a91.41,91.41,0,0,1-18.78,27.78c-1,1.84-2.48.84-3.72.45-5.49-1.72-11-3.31-16.83-3a14.55,14.55,0,0,0-7.75,2.21,7,7,0,0,1-.72.49c-2.87,1.7-3.92,4.58-4.85,7.53-.33,1-.34,2.24-1.5,2.84-3.46-.56-6.47-2.73-10.05-2.83a6.09,6.09,0,0,1-4.53-2c-9.93-7-17.09-16.42-22.82-27a4.55,4.55,0,0,1,1.36-2.75c2.55-2.92,5-5.93,7.54-8.86.7-.82,1.47-1.89,2.85-1,2.62,3.94,5,8.05,8.31,11.47,7,7.23,14.89,12.6,25.54,12.15a28.33,28.33,0,0,0,16.23-6.06,54.37,54.37,0,0,0,14-15.83c7.95-13.55,12-28.34,13.67-43.82a140.54,140.54,0,0,0-.89-37.32c-1.94-11.94-5.21-23.44-10.89-34.15a64.15,64.15,0,0,0-13.48-17.43C478,77.16,461,77.36,449.47,88.15c-8.16,7.6-13.65,16.82-17.6,27.11a123.67,123.67,0,0,0-8,44.11c-.05,11,.64,21.92,3.32,32.64C427.39,192.87,427.78,193.83,427,194.67Z"
    transform="translate(-68.57 -53.4)"
  /><path
    class="cls-3"
    d="M309.53,254.53c-13.44,5.22-27.08,9.85-41,13.77q-.06-24.26-.11-48.51c0-21,0-42-.07-63,0-2.56.73-3.11,3.18-3.09q20.58.18,41.16,0c2.38,0,3.32.41,3.22,3-.22,5.85-.12,11.72,0,17.59,0,1.68-.43,2.5-2.22,2.25-3-.41-2.19,1.81-2.23,3.34s-.52,3.32,2.05,2.93c2.19-.33,2.4.84,2.4,2.63-.05,12.2,0,24.4,0,36.6a1.33,1.33,0,0,1-.65.44,3.29,3.29,0,0,1-.83,0c-3.46-.39-3.46-.39-2.7-3.84-.76-.54-1.28.61-2,.3a1.13,1.13,0,0,1-.59-.49c-.42-1.1,0-2,.91-3.24-1.36.63-2.37.56-3-.49a4.21,4.21,0,0,1-.41-3c0-.18.05-.43.18-.52,3-2,2.7-4.75,1.63-7.63a2.62,2.62,0,0,0-2.44-2,3.56,3.56,0,0,1-2.58-1.43,2.33,2.33,0,0,0-4.1.6c-.91,1.89-1.44,3.87-.15,5.89a2.93,2.93,0,0,1-.9,4.42,6.76,6.76,0,0,0-3.06,6c-3.56,2.62-2.44,5.6-.93,8.84,1.25,2.66,3.41,5,3.16,8.27a41.3,41.3,0,0,0-.89,4.26c-.44,2.41-.82,4.83-1.18,7.25-.49,3.28-1.7,4.29-5,4.54a33.85,33.85,0,0,0-10.93,2.69c-1.43.54-3.29.36-4,2.31a6.84,6.84,0,0,1,3.77-1.57,86.41,86.41,0,0,0,15.51-.59c3.48-.36,6-2,7.24-5.44a32.9,32.9,0,0,1,1.36-3.11c.73-1.6,1.92-2.37,3.59-1.56s4,1.22,3.5,4C310,249.42,311.07,252.13,309.53,254.53Z"
    transform="translate(-68.57 -53.4)"
  /><path
    class="cls-4"
    d="M436.72,218.61c-3.91,3.42-6.83,7.71-10.26,11.55-.37.41-.73.84-1.1,1.27-5.5,5.35-10.67,11-16.36,16.22-6.29,5.74-12.72,11.3-19.4,16.59a362.15,362.15,0,0,1-50.52,33.34A442.93,442.93,0,0,1,298,317.42c-11.71,5-23.6,9.55-35.68,13.49-8.19,2.67-16.45,5.21-24.81,7.41-7.63,2-15.2,4.31-22.88,6.09-9.89,2.3-19.79,4.61-29.84,6.16-5.77.89-11.49,2.07-17.26,2.95-6.25,1-12.51,1.91-18.8,2.51-10.06,1-20.16,1.6-30.23,2.46-2.43.2-3.73-.29-3.34-3.1a29.9,29.9,0,0,0-.06-4.82,1.53,1.53,0,0,1,1.65-1.2c12-.67,24-2.4,35.87-4.06s23.77-3.82,35.55-6.29c16.58-3.49,33.07-7.33,49.37-12,8.84-2.53,17.56-5.39,26.31-8.15,10.61-3.35,21-7.35,31.32-11.38,10.16-4,20.11-8.41,29.93-13.12,9.5-4.56,18.81-9.55,27.93-14.82a333.15,333.15,0,0,0,34.84-23A290,290,0,0,0,426.35,222a209,209,0,0,0,19.59-24.08c3.78-5.59,7.84-11,11.2-16.87.53-.94.72-2.67,2.36-2.22,1.93.54,1.67,2.13,1.23,3.64.65,1.38-.37,2.33-.94,3.34-2.19,3.84-4.74,7.47-6.77,11.4-1.89,2.46-3.85,4.87-5.52,7.5-2.11,3.36-4.69,6.4-7,9.65C438.83,215.39,438.5,217.65,436.72,218.61Z"
    transform="translate(-68.57 -53.4)"
  /><path
    class="cls-5"
    d="M335.05,125.64c-9.45,0-18.9-.12-28.35,0-2.51,0-3.07-.89-2.9-3.12a19.35,19.35,0,0,1,4.95-11.73A8.19,8.19,0,0,1,315,108c4.14,0,8.27-.13,12.35.92,2.31.6,3.5-.66,2.54-3-1.24-3-1-6-1.09-9.12-.1-5.44,3.2-8.77,7.49-11,9.34-4.88,19.44-4.34,29.53-3.46a43.53,43.53,0,0,1,14.69,3.52c-.49,2.18-1.42,2.73-3.51,2a7.84,7.84,0,0,1-1.74-.92c-.55-.35-1-.89-2-.79-.3,1.29.58,2.46.6,3.72a10.85,10.85,0,0,1-1.14,5.49,8.46,8.46,0,0,0-1.07,4.06,2.81,2.81,0,0,0,2.8,3.19c3.08.41,3.64,1.21,3.34,4.28a10.86,10.86,0,0,1-1.81,5.61,11.58,11.58,0,0,0-2.28,6.49c-.34,3.53-1.8,5.15-5.11,5.42C357.48,125.4,346.29,126.2,335.05,125.64Z"
    transform="translate(-68.57 -53.4)"
  /><path
    class="cls-3"
    d="M106,250c-4.72-17.38-5-34.52,2.81-51.21,1.25-.83,2.37-.18,3.47.34,8,3.84,16.11,7.52,24.23,11.14a5.52,5.52,0,0,1,3.12,3.78c3.1,10.13,6.1,20.28,9.24,30.4,2.13,6.86,4.06,13.79,6.16,20.66.51,1.66,1.9,3.77.49,5.05s-3.4-.32-5-1q-16.09-6.75-32.14-13.64C114.21,253.77,109.89,252.32,106,250Z"
    transform="translate(-68.57 -53.4)"
  /><path
    class="cls-6"
    d="M232.37,278.05c-8.2,1.79-16.4,3.6-24.61,5.36a14,14,0,0,1-2.51.06c-.42-1.12.19-2,.64-2.94A155.57,155.57,0,0,0,219,242.35c.69-3.52,1.05-7.09,1.61-10.63,0-.32,0-.64,0-1a81.47,81.47,0,0,0-.59-21.44c-.37-2.53-1-5-1.54-7.49-.28-1.16-.81-2.38.13-3.51,9.07,0,18.14.08,27.2-.08,2.25,0,2.6.69,2.57,2.7-.12,10.48-.09,21-.13,31.44,0,1.85.1,3.62,2.15,4.48a4.54,4.54,0,0,1,3.45,2.86c1.83,3.75,1.41,4.93-2.29,6.35a7.76,7.76,0,0,1-5.83,2.4c-3,0-4.59-1.29-5.58-4.18-1.16-3.37-2-6.84-3.09-10.23a4.81,4.81,0,0,1-.21-5.28c1-2.11,1.88-4.3,3.1-6.31.32-.54.81-1.05.46-1.69-.4-.21-.79-.16-.84.09-.72,3.42-2.85,6.08-4.76,8.85a3.27,3.27,0,0,0-.13,4.14,9.26,9.26,0,0,0,.59,1c5.92,6.94,5.61,15.18,4.92,23.5-1,4-1.81,8-.66,12.24C240.52,274.22,236.11,278.44,232.37,278.05Z"
    transform="translate(-68.57 -53.4)"
  /><path
    class="cls-7"
    d="M134.69,314.08a72.57,72.57,0,0,1-6,10.26c-2.25,1.41-4.88,1.43-7.36,1.78-5.31.74-10.58,1.76-15.9,2.49-.62,0-1.27.2-1.8-.32-.22-2.81,1-5.52.53-8.35-.15-1,.18-2.09-.7-3.47a15.36,15.36,0,0,0-2.25,7.07,45.32,45.32,0,0,1-3.08,11.66Q95,345,91.85,354.81a13.62,13.62,0,0,0-.48,1.62c-.28,1.45-1.42,1.38-2.43,1.29-1.49-.13-1.07-1.29-.91-2.16,1.61-9.21,2.69-18.48,3.67-27.76a15.5,15.5,0,0,0-2.06-10.17c-9.73-16.42-12.37-34.19-9-52.9,2.68.72,4.42,2.78,6.23,4.61,3.36,3.43,7.17,6.33,10.64,9.63-4.52-4.54-9.18-8.9-14-13.13-.82-.72-2-1.22-1.78-2.64,8.24-3.27,16.73-3.6,25.38-2.21.74.12,1.49.18,2.23.27,3-.66,5.56.67,8.12,1.82,1.43.63,1.31,2.16,1.38,3.48.51,9.51.91,19,1.43,28.52,0,.77.09,1.56-.61,2.06s-1.48.12-2.08-.33c-2.65-2-5.3-4-7-6.87-.21-.72.2-1.05.81-1.2,2-.51,1.74-2.05,1.29-3.36-.63-1.82-1.79-.59-2.74-.19-1.2.51-2.3,1.36-3.74.94-1.86-1-3-3-5-3.83-1.86-.45-4-1.06-5.2.79s.6,3.28,1.46,4.78a2.78,2.78,0,0,1,.61,2.37,37.45,37.45,0,0,0-7.43,7.95c-2.6,3.8-2.86,7.39-.8,11.43,1.25,2.45,2.77,4.73,4.15,7.1.56,1,.86,2.31,2.62,2.28-.24-1.43-2.14-2.21-1.26-3.81.94-1.37,2.39-1.19,3.75-1.26a17.74,17.74,0,0,0,4.12-.26c1.22-.54.93-1.64,1-2.62.12-1.72-.32-3.49.44-5.16.74-.82,1.37-.18,2,.21s1.29,1.12,2,1.56c1.14.69,2.34,1.47,3.69.71,1.18-.66.92-1.95,1-3.07.24-3.57-.77-6.92-1.87-10.25a1.8,1.8,0,0,1,.13-1.25c1.16-.93,1.92,0,2.69.63,4.43,3.67,8.45,7.79,12.76,11.61,1.9,1.68,3.63,3.56,5.65,5.13C133.58,311.9,134.64,312.67,134.69,314.08Z"
    transform="translate(-68.57 -53.4)"
  /><path
    class="cls-8"
    d="M335.05,125.64c.73-.89,1.74-.57,2.65-.59,7.78-.2,15.56-.31,23.33-.62,2.33-.1,4.66-.46,7-.6,3.37-.19,4.78-1.74,5.08-5.15.19-2.22-.4-4.38,2.09-6.16,1.28-.91,1.48-3.53,1.87-5.45.48-2.35,0-3.91-3.11-3.69s-4.46-3.8-2.44-7.38a10.11,10.11,0,0,0,1.64-5.29,6,6,0,0,0-1-3.76c-.39-.52-.93-1.07-.28-1.72a1.71,1.71,0,0,1,2.33-.14c.77.54,1.37,1.33,2.17,1.79,1.63,1,3.23,1.3,4.11-1l1.14.55c.38,1.41.61,2.5,2.76,2.43,2.35-.08,3.44,2.55,5.24,3.8l.53.58c1,1.69,1.72,3.5,2.6,5.24.52,1,1.08,2,2.51,1.58,1.72-.82,2.44-2.57,3.55-3.93,4.11-5.09,9.52-5,15.15-2,2.28,1.21,3.76,3.34,5.77,4.85a203.29,203.29,0,0,0-7.93,28.47,10.6,10.6,0,0,0-4.91-1c-5.64-.07-11.28.26-16.9-.18-1.28-.14-1.57-1.41-2.34-2.16-.49.6-.42,1.48-1.15,1.89a3.67,3.67,0,0,1-.91.33c-7.76.41-15.52.12-23.27.18-7,0-14,0-21,0-4.8,0-4.81,0-4.81,4.94q0,42.67,0,85.36c0,1.68.25,3.41-.53,5a.68.68,0,0,1-.94.31Z"
    transform="translate(-68.57 -53.4)"
  /><path
    class="cls-9"
    d="M469.09,252c4.38-3.3,9.4-2.95,14.38-2.34a58.57,58.57,0,0,1,11.77,3c.93.32,1.9,1,2.89.09.33,1.76,2,1.84,3.19,2.45,3.25,1.69,6.23,3.64,7.54,7.27.5,1.4,1.2,1,2.19.66,3.38-1.1,6.69-2.37,10.45-1.32,3.31.93,6.3,3.82,6.61,7.24.16,1.79-1.11,3-2.26,4a28.4,28.4,0,0,1-10,5.66A168.39,168.39,0,0,1,492.08,285a33.42,33.42,0,0,1-9.84.78c-2.24-.24-4.35-1.16-6.57-1.44-2-.26-2.87-1.41-3.25-3.3-.55-2.74-.07-5.44-.06-8.17,0-3.48,0-7,0-10.45a9.12,9.12,0,0,1,.38-3.07c.32-.92,1.83-1.5,1.05-2.67a7.68,7.68,0,0,0-3.17-3.14C470,253.22,468.8,253.36,469.09,252Z"
    transform="translate(-68.57 -53.4)"
  /><path
    class="cls-10"
    d="M162.88,202.89c2.3.24,3.39-1.63,4.75-2.87,10-9.15,26.08-17.08,39.29-20.27-.2,3.08-1.45,5.83-2.25,8.64-3.47,12.23-7.17,24.39-10.81,36.58-1.1,3.69-2.29,7.35-3.44,11-.19.58-.25,1.11.33,1.51-.09,3.62-3.76,3-5.83,4.91,1.3,0,2.46-.67,3.27.42a2.91,2.91,0,0,1,.16,2.13,14.08,14.08,0,0,0-.94,3.25c-.08.67-.36,1.37-1.17,1.39s-1-.68-1.22-1.33c-.27-.87.07-2-.88-2.58a3.39,3.39,0,0,1-1.84-2.7c.63-1.93-.77-2.35-2.11-2.81-2.37-6.21-4.67-12.45-7.47-18.49-.67-1.44-1.37-2.87-2.14-4.26-.34-.61-.64-1.23-1-1.85a74.21,74.21,0,0,0-5.93-10C163.16,204.82,162.12,204.1,162.88,202.89Z"
    transform="translate(-68.57 -53.4)"
  /><path
    class="cls-3"
    d="M162.88,202.89c2.43,4.16,5.42,8,7.34,12.45-3.08,4.56-6.89,8.52-10.36,12.76-2.82,3.43-5.71,6.81-8.58,10.2-.73.86-1.45,2-2.75,1.66s-1.31-1.52-1.6-2.5c-5-16.85-10.25-33.64-15-50.57-.81-2.91-2-5.71-2.75-8.65-.28-1.09-.76-2.19.18-3.21,9.58,3.43,17.28,9.57,24.3,16.71A122.92,122.92,0,0,1,162.88,202.89Z"
    transform="translate(-68.57 -53.4)"
  /><path
    class="cls-11"
    d="M218.61,198.32c1.09,5.71,2.6,11.32,3,17.18a95.54,95.54,0,0,1-.25,15.78c-3.9,1.74-8.09,2.54-12.11,3.89a42.24,42.24,0,0,0-4.86,1.54c-2.66,1.26-5.09,1.39-7.34-.75-.78-.22-1.44-1-2.37-.13a1.83,1.83,0,0,1-2.22.49c2.17-7.69,4.3-15.39,6.54-23.06,3-10.3,6.09-20.57,9.14-30.85.19-.61.43-1.21.8-2.24C213.64,185.71,215.79,192.2,218.61,198.32Z"
    transform="translate(-68.57 -53.4)"
  /><path
    class="cls-12"
    d="M469.09,252c3.07.05,4,3.1,6.12,4.45.93.59.7,1.23-.22,1.66a2.58,2.58,0,0,0-1.85,2.52c.05,6.65,0,13.3,0,19.95,0,1.9.64,3,2.82,2.94s4.14,1.54,6.26,2.2c-11.68-.15-23.27-1-34.49-4.6a21.13,21.13,0,0,1-8.19-4.88c-2.25-2.15-1.86-5.1-1.53-7.75a10.62,10.62,0,0,1,9.05-8.85c.85-.11,1.56-.07,1.1-1.23,1.81,1.19,3.95.89,5.92,1.35a27.51,27.51,0,0,1,8.59,3.2,5,5,0,0,0,3.21-5.26c-.07-2.18,1.66-3.66,2.72-5.38Z"
    transform="translate(-68.57 -53.4)"
  /><path
    class="cls-13"
    d="M134.69,314.08l-21.24-19.51a3.37,3.37,0,0,0-2-1c-1.59-.87-2.63-2.37-4-3.53a1.14,1.14,0,0,1,.43-1.15,2.07,2.07,0,0,1,2.57.31,56.26,56.26,0,0,0,7.57,7.15c.35.28.66.77,1.2.48s.37-.81.34-1.26c-.53-9.93-1.11-19.86-1.57-29.8a2.36,2.36,0,0,0-2-2.56c-2.26-.62-4.5-1.3-6.74-1.95q-1.59-5.06-3.16-10.11c2.16,0,3.91,1.27,5.79,2,13.84,5.77,27.63,11.63,41.45,17.44a7.77,7.77,0,0,1,4.59,5c1.36,3.82,2.29,7.77,3.64,11.59a5.53,5.53,0,0,0,1.67,2.5c-1.35,1-2.89.4-4.35.52-3.56-2-6.32-5-9.48-7.57A122.85,122.85,0,0,0,124.27,267a14.77,14.77,0,0,0-1.84-.75c-1.35-.42-2,.1-2,1.49,0,1.22,0,2.45.08,3.68.53,6.29,1.09,12.58,1,18.91,0,2.57.5,5.06.69,7.6a5,5,0,0,0,2,3.27c3.13,2.88,6.35,5.65,9.41,8.59.81.77,1.75,1.48,1.93,2.71A1.64,1.64,0,0,1,134.69,314.08Z"
    transform="translate(-68.57 -53.4)"
  /><path
    class="cls-3"
    d="M109.5,197.16a62.1,62.1,0,0,1,17.56-22.23c1.17.4,1.38,1.48,1.67,2.46,2.75,9.61,5.79,19.14,8.67,28.71.29,1,.81,2.06,0,3s-2,.44-2.89,0c-7.91-3.58-15.9-7-23.65-10.9A3.1,3.1,0,0,1,109.5,197.16Z"
    transform="translate(-68.57 -53.4)"
  /><path
    class="cls-14"
    d="M109.5,197.16c3.08.59,5.8,2.21,8.51,3.56,5.64,2.82,11.53,5.07,17.18,7.86.56.27,1.16.77,1.81.2.41-.37.22-.85.07-1.31q-5-16.28-10-32.54c.82-1.06,1.57-.44,2.32.1.39,4.57,2.41,8.67,3.68,13,4,13.63,8.08,27.24,12.12,40.85.86,2.89,1.61,5.81,2.51,8.68.21.67.14,1.68.95,1.92s1.31-.65,1.76-1.19q9.22-11.06,18.39-22.15a2,2,0,0,1,1.43-.79L171,217c-2.85,4.48-6.69,8.15-10,12.29-2.93,3.7-6.12,7.2-9.19,10.79a4.58,4.58,0,0,0-1,4.86c3.93,13.42,7.94,26.82,11.83,40.25a8.44,8.44,0,0,0,3,4.21,3.78,3.78,0,0,1-2.32.29c-3.33.23-2.59-2.91-3.05-4.37q-1.74-5.5-3.51-11a3.64,3.64,0,0,0-2.21-2.39c-10.12-4.28-20.28-8.46-30.35-12.86-6-2.63-12.28-4.68-18-8L106,250c4.53.75,8.43,3.17,12.59,4.87,12.25,5,24.38,10.26,37.23,15.71-2.18-7.44-4.12-14.19-6.13-20.91-3.34-11.16-6.75-22.3-10.05-33.48a8.42,8.42,0,0,0-5.34-6.1c-7.91-3.25-15.55-7.14-23.32-10.75a12.53,12.53,0,0,0-2.17-.55A2.44,2.44,0,0,1,109.5,197.16Z"
    transform="translate(-68.57 -53.4)"
  /><path
    class="cls-15"
    d="M286.66,66a14.54,14.54,0,0,0-2.33-3.45c-1-1.26-1.46-2.65,1-2.82.57,0,1.47,0,1.51-.53.43-5.08,4.62-2.69,6.8-3,7.05-.92,13,2.71,18.95,5.92,3,1.65,6,3.37,9.17,5.14-1.42,1.32-2.94.93-4.38.93-2.58-.79-5.19-.46-7.82-.32a150.11,150.11,0,0,1-19.2-.6A10.15,10.15,0,0,1,286.66,66Z"
    transform="translate(-68.57 -53.4)"
  /><path
    class="cls-7"
    d="M103.83,328.37l1.12-.56c.7.87,1.53.72,2.53.59,5.76-.77,11.44-2,17.23-2.61,1-.09,2-.51,3,.33q-5.49,9.51-11,19c-.29.51-.6,1-1.28.91q-5.47-4.5-11-9C102.44,334.3,103,331.34,103.83,328.37Z"
    transform="translate(-68.57 -53.4)"
  /><path
    class="cls-16"
    d="M295.93,238.08a7.45,7.45,0,0,1,1.15-4.16,1.31,1.31,0,0,1,1.5.34,15.09,15.09,0,0,0,2.34,2c3.24,2.31,4.09,2.08,5.49-1.5,1.35-.45,2.42,1,3.78.57a14.5,14.5,0,0,1,5.54,4.46c1.85,2.49.53,5.23.58,7.85,0,1.39-.18,2.78-.28,4.17a72.42,72.42,0,0,0-.89,10,5.69,5.69,0,0,0-.24,2.49c-.06.72.18,1.59-.81,1.88s-1.86.1-2.22-1.05l-2.34-10.6c0-2.55-.34-5.16.12-7.62.59-3.12-2.26-2.4-3.41-3.45s-1.7.72-2.4,1.44C302.11,241.58,298.57,240.35,295.93,238.08Z"
    transform="translate(-68.57 -53.4)"
  /><path
    class="cls-17"
    d="M253.8,272.36c-1,6.22-2,12.44-3,18.64-.12.69.05,2-1.1,2-1.33,0-1.36-1.28-1.52-2.32-.83-5.44-.13-10.88-.18-16.32a9.51,9.51,0,0,1-2.25-2.83c-2.22-3.12-4.16-6.35-3.71-10.42,2.52-1.08,5.36-1.1,7.86-2.32a1.2,1.2,0,0,1,1.52.39A29.55,29.55,0,0,1,253.8,272.36Z"
    transform="translate(-68.57 -53.4)"
  /><path
    class="cls-18"
    d="M251.41,259.17c-3.15.85-6.17,2.3-9.54,2.26-2.89.81-2.52-1.15-2.45-2.87a107.52,107.52,0,0,0,.32-13.55,6.56,6.56,0,0,0-1.55-4.15,29.21,29.21,0,0,1-4.33-7.25c1.18-1.2,2.43-.86,3.7-.18,1.38,1.08,1,2.76,1.34,4.18a42.13,42.13,0,0,0,1.66,6.26c1.56,4,4.2,5,8.12,3.23.93-.43,1.76-1.13,2.88-1Z"
    transform="translate(-68.57 -53.4)"
  /><path
    class="cls-19"
    d="M103.83,328.37c.52,2.88-.14,5.84.62,8.7a188.28,188.28,0,0,1-.6,19.15c-.08,1-.28,1.67-1.32,1.76-1.26.09-1.51-.74-1.63-1.81-.71-6.09-1.47-12.18-2.21-18.28-.11-.91.13-1.9-.56-2.69-.75-2.36.75-4.35,1.25-6.45.91-3.85,1.26-7.79,2.24-11.61a2.05,2.05,0,0,1,2.25-1.74c1.44.14,1.06,1.35,1.06,2.21C104.92,321.23,105.35,324.9,103.83,328.37Z"
    transform="translate(-68.57 -53.4)"
  /><path
    class="cls-20"
    d="M262.35,138.67c0-2,0-4,0-5.94,0-1.67.78-2.34,2.31-1.4q4.92,3,9.75,6.16c1.06.69,1,1.39-.13,2.11-3.4,2.15-6.75,4.37-10.13,6.55-1.17.76-1.78.35-1.79-1,0-2.17,0-4.33,0-6.5Z"
    transform="translate(-68.57 -53.4)"
  /><path
    class="cls-21"
    d="M182.77,157.2v-6c0-1.53.46-2.23,2-1.16,3,2.1,6,4.23,9.13,6.2,1.61,1,1.41,1.73,0,2.64-2.91,1.92-5.79,3.89-8.72,5.78-1.42.91-2.52,1-2.46-1.25C182.82,161.36,182.78,159.28,182.77,157.2Z"
    transform="translate(-68.57 -53.4)"
  /><path
    class="cls-22"
    d="M98.69,143.22c-2.76,4.17-6.75,7.08-10.52,10.22a37,37,0,0,0-3.61,3.1C83,158.23,82,158.16,81.22,156c-.61-1.76-1.25-3.51-1.87-5.27-.72-1.41.46-2,1.3-2.35,5.73-2.17,11.43-4.44,17.54-5.35C98.36,143,98.54,143.1,98.69,143.22Z"
    transform="translate(-68.57 -53.4)"
  /><path
    class="cls-23"
    d="M98.69,143.22A88.2,88.2,0,0,0,88,146.56c-2.58,1-5.43,1.17-7.78,2.85a1.75,1.75,0,0,0-.91,1.27l-7,.42A17.31,17.31,0,0,1,74.77,146c.55-.95.83-2.15,2.21-2.31,6.09-.71,12.18-1.42,18.32-1.09l3.43.17s.09.14.08.2A.77.77,0,0,1,98.69,143.22Z"
    transform="translate(-68.57 -53.4)"
  /><path
    class="cls-24"
    d="M320.87,179.39c0-1.51,0-3,0-4.53s.09-2.52,1.95-1.21c2.52,1.78,5.15,3.41,7.78,5,1.21.75,1.09,1.44.09,2.12-2.49,1.68-5,3.39-7.55,4.92-1.45.86-2.48.57-2.29-1.51C321,182.61,320.87,181,320.87,179.39Z"
    transform="translate(-68.57 -53.4)"
  /><path
    class="cls-25"
    d="M95.3,142.61a34.81,34.81,0,0,1-9.41,1.1c-2.92,0-5.77.71-8.68.63-1.3,0-1.61,1.15-2.44,1.67a10.47,10.47,0,0,0-.71-5.26c-.61-1.83.07-2.24,1.68-2Q84.37,139.83,93,141C94,141.12,95.06,141.31,95.3,142.61Z"
    transform="translate(-68.57 -53.4)"
  /><path
    class="cls-26"
    d="M286.66,66c2.64-.11,5.21.55,7.82.73,6.32.45,12.63.27,18.94.42,1.41,0,2.81.07,4,1.06-8.52.57-17,1.2-25.56,1.7C287.66,70.16,287.65,70.05,286.66,66Z"
    transform="translate(-68.57 -53.4)"
  /><path
    class="cls-27"
    d="M256,142.09c-4.43,0-4.43,0-4.43-3.7s0-3.7,3.93-3.7,3.76,0,4.1,4.08C259.89,142.38,257.94,142.34,256,142.09Z"
    transform="translate(-68.57 -53.4)"
  /><path
    class="cls-28"
    d="M315.73,239.82l-5.6-4.06c1.37-2,.95-3.91-.3-5.86-.64-1-1.31-2.16-.31-3.39,2.18.16,4-2,6.32-.95Q315.78,232.69,315.73,239.82Z"
    transform="translate(-68.57 -53.4)"
  /><path
    class="cls-29"
    d="M245.55,134.7c2.4-.58,3.41.48,3.22,3.44-.26,3.94-.07,4.05-3.93,3.89-1.34-.05-3.65,1.13-3.8-1.44C240.71,134.7,240.83,134.7,245.55,134.7Z"
    transform="translate(-68.57 -53.4)"
  /><path
    class="cls-30"
    d="M233.39,142c-.83-.36-3,1.07-3.16-1.42-.29-5.9-.18-5.61,4.46-6,3.89-.32,3,2.06,3.27,4.23C238.46,142.56,236.13,142.23,233.39,142Z"
    transform="translate(-68.57 -53.4)"
  /><path
    class="cls-31"
    d="M315.84,225.56c-2.15.06-3.92,2.36-6.31,1.11a2.07,2.07,0,0,1-1.67-1.51c.15-2.21-.68-4.68,1.62-6.34l0,0a3,3,0,0,1,1.22,1.46c.62,2.77,2.39,2.74,4.52,2l.73-.07c2.31-1,5.18-1.17,6-4.3a1,1,0,0,1,1.62-.52,1.58,1.58,0,0,1,.55,2.22,7.29,7.29,0,0,1-3,2.8C319.3,223.36,317.58,224.48,315.84,225.56Z"
    transform="translate(-68.57 -53.4)"
  /><path
    class="cls-32"
    d="M175.78,161.39c-3.79,0-3.79,0-3.79-3.81,0-3.58,0-3.44,3.74-3.63,2.61-.12,4,.27,3.73,3.44C179.14,161.37,179.39,161.39,175.78,161.39Z"
    transform="translate(-68.57 -53.4)"
  /><path
    class="cls-33"
    d="M157.79,158.14c.48,2.21-.22,3.53-3.34,3.32-4-.27-4-.06-4-3.85,0-3.61,0-3.61,3.73-3.61S157.79,154,157.79,158.14Z"
    transform="translate(-68.57 -53.4)"
  /><path
    class="cls-34"
    d="M168.59,157.14c0,4.25,0,4.25-3.55,4.25-3.84,0-3.84,0-3.84-3.69s0-3.51,3.92-3.76C168.07,153.74,169.17,154.72,168.59,157.14Z"
    transform="translate(-68.57 -53.4)"
  /><path
    class="cls-35"
    d="M253.84,233.38c1.25-1.7,1.22-3.27.08-5.16-1.24-2.06-1.78-4.53-3.51-6.36a1.63,1.63,0,0,1-.38-2.06c.47-.75,1.35-.53,2.08-.47,1.07.08,1,.81.89,1.65-.24,1.42.8,2.38,1.46,3.45.93,1.51,1.94,3,3,4.44a4,4,0,0,1,0,5.18C256.15,234.25,254.84,234.64,253.84,233.38Z"
    transform="translate(-68.57 -53.4)"
  /><path
    class="cls-36"
    d="M81.71,263.2q7.7,7.07,15.39,14.13c.77.71,2.5,1.47,1.71,2.41-1,1.22-2.11-.31-3-1.1L80.6,264.73A1.22,1.22,0,0,1,81.71,263.2Z"
    transform="translate(-68.57 -53.4)"
  /><path
    class="cls-37"
    d="M192.44,236.32a10.41,10.41,0,0,0,2.15-1.27c1.37-1.33,1.86-.36,2.39.75,2.16,2.25,2,3-.83,3.75-2.72-1.57-2.72-1.57-3.27.83-1.11,1.61-2.82,2-4.6,2.24l-.41-.05c-1.43.09-2.74,1-4.41.76,1.41-3.45,6.06-2.5,7.29-5.83Z"
    transform="translate(-68.57 -53.4)"
  /><path
    class="cls-38"
    d="M253.84,233.38c1.18.3,2.53-.32,3.59.67a30.11,30.11,0,0,1-3.58,5.67l-3.45-2.86Z"
    transform="translate(-68.57 -53.4)"
  /><path
    class="cls-39"
    d="M334,226.14c-1.49,1.52-1.56,3.71-2.67,5.92-1.17-3.05-.15-5.79-.26-8.43-.05-1.48,1.84-.8,2.94-.32A2.24,2.24,0,0,1,334,226.14Z"
    transform="translate(-68.57 -53.4)"
  /><path
    class="cls-5"
    d="M389.67,92.65c-1.29-.49-2.65-.81-3.32-2.3a2.07,2.07,0,0,0-2.13-1.06c-3.34.2-3.34.18-2.55-2.87C384.69,88.05,388.16,89.09,389.67,92.65Z"
    transform="translate(-68.57 -53.4)"
  /><path
    class="cls-5"
    d="M334,226.14c0-.94,0-1.88,0-2.83a1.07,1.07,0,0,0,1-1.15h.38a1.42,1.42,0,0,1,.69.74,8.67,8.67,0,0,1,.31,3.12c.18,4.85.07,9.7.07,14.54a4.18,4.18,0,0,1-.91,3.15l-.61.06c0-5.11,0-10.22,0-15.33C335,227.58,335.44,226.44,334,226.14Z"
    transform="translate(-68.57 -53.4)"
  /><path
    class="cls-40"
    d="M81.29,184.61c-2.9.89-4.45-.49-5.94-2.48,2.58.07,2.58.07,5.48-2.86C81.53,181.16,78.61,183.1,81.29,184.61Z"
    transform="translate(-68.57 -53.4)"
  /><path
    class="cls-41"
    d="M108.36,360.64c-2.36,1.15-4.49-.23-6.56.33-.61.16-.72-.92-.6-1.59a1.22,1.22,0,0,1,1.68-1A15.86,15.86,0,0,1,108.36,360.64Z"
    transform="translate(-68.57 -53.4)"
  /><path
    class="cls-42"
    d="M95.06,360.9c-2.51,1-4.47-.1-6.42.39-1,.25-.78-.78-.82-1.38-.06-.89.44-1.12,1.24-1.07C91.07,359,92.74,359.94,95.06,360.9Z"
    transform="translate(-68.57 -53.4)"
  /><path
    class="cls-43"
    d="M267.12,58.11a11.07,11.07,0,0,1-5.48.28c-.25,0-.45-.47-.68-.72.27-.23.52-.62.81-.66A7.06,7.06,0,0,1,267.12,58.11Z"
    transform="translate(-68.57 -53.4)"
  /><path
    class="cls-44"
    d="M86,172.47a9.23,9.23,0,0,1-3.76,5C82.51,175.08,84.05,173.61,86,172.47Z"
    transform="translate(-68.57 -53.4)"
  /><path
    class="cls-45"
    d="M73.75,180.21c-2.08-.54-2.91-2.07-3.75-3.59-.23-.41-.44-.91,0-1.26s.88,0,1.12.43C72,177.25,72.88,178.73,73.75,180.21Z"
    transform="translate(-68.57 -53.4)"
  /><path
    class="cls-43"
    d="M268.71,58.08c2.11-1.19,3.81-.1,5.54.34a.89.89,0,0,1,.41.65.57.57,0,0,1-.78.56C272.31,58.94,270.29,59.7,268.71,58.08Z"
    transform="translate(-68.57 -53.4)"
  /><path
    class="cls-5"
    d="M395.31,100.05c-1.13,1.17-1.92.25-2.44-.57a19.92,19.92,0,0,1-2.67-6.25c1.57,1,1.86,2.78,2.66,4.24A4.57,4.57,0,0,0,395.31,100.05Z"
    transform="translate(-68.57 -53.4)"
  /><path
    class="cls-46"
    d="M83.71,184.78l6-.58c-1.81,2-3.9,1.71-6,1.38Z"
    transform="translate(-68.57 -53.4)"
  /><path
    class="cls-47"
    d="M197.24,132.39a7.71,7.71,0,0,1-6.26.71C193.37,132,195.2,131.48,197.24,132.39Z"
    transform="translate(-68.57 -53.4)"
  /><path
    class="cls-48"
    d="M88.28,171.42c1.8-2.17,3.94-1.49,6-1.44l.11.79Z"
    transform="translate(-68.57 -53.4)"
  /><path
    class="cls-49"
    d="M212.85,123.06c.55-2.23,1.94-3.63,3.24-5.33C216.42,120.08,215.54,121.49,212.85,123.06Z"
    transform="translate(-68.57 -53.4)"
  /><path
    class="cls-50"
    d="M74.82,192.93c.07-2.08.45-4,2.08-5.53C76.76,189.44,76.44,191.42,74.82,192.93Z"
    transform="translate(-68.57 -53.4)"
  /><path
    class="cls-51"
    d="M91.9,183.4l4.59-3.83a6,6,0,0,1-4,4.53Z"
    transform="translate(-68.57 -53.4)"
  /><path
    class="cls-52"
    d="M73.28,158.07a11.91,11.91,0,0,1-3.24,6C70,161.77,71,160.07,73.28,158.07Z"
    transform="translate(-68.57 -53.4)"
  /><path
    class="cls-53"
    d="M226.31,79c-.26,2.37-1.39,4-2.81,6.23C223.53,82.07,224.26,80.56,226.31,79Z"
    transform="translate(-68.57 -53.4)"
  /><path
    class="cls-54"
    d="M220.88,101c-1.09-2.75-.19-4.57.56-6.41C222.35,96.57,221.55,98.41,220.88,101Z"
    transform="translate(-68.57 -53.4)"
  /><path
    class="cls-55"
    d="M78.16,211.85c2.08.74,3,2.46,4.49,3.23a.61.61,0,0,1,.23.95.67.67,0,0,1-1,.17C80.54,215,78.8,214.2,78.16,211.85Z"
    transform="translate(-68.57 -53.4)"
  /><path
    class="cls-56"
    d="M74.94,204.14c.75,1.82,1.49,3.65,2.24,5.48l-.76.31A5.91,5.91,0,0,1,74.94,204.14Z"
    transform="translate(-68.57 -53.4)"
  /><path
    class="cls-57"
    d="M211.43,124.66c-.73,2.14-2.43,3-4.35,3.59A8.54,8.54,0,0,1,211.43,124.66Z"
    transform="translate(-68.57 -53.4)"
  /><path
    class="cls-58"
    d="M245.23,61.15a7.24,7.24,0,0,1,5.44-2.08A8.05,8.05,0,0,1,245.23,61.15Z"
    transform="translate(-68.57 -53.4)"
  /><path
    class="cls-59"
    d="M243.29,62.66l-5.41,3.28C239.31,63.35,240.65,62.51,243.29,62.66Z"
    transform="translate(-68.57 -53.4)"
  /><path
    class="cls-60"
    d="M74.27,201.43a6.89,6.89,0,0,1,0-5.69C75.21,197.6,74.74,199.52,74.27,201.43Z"
    transform="translate(-68.57 -53.4)"
  /><path
    class="cls-61"
    d="M259.23,57.79c-2.46,1.14-4.38.82-6.44,1.31C254.32,57.29,255.12,57.12,259.23,57.79Z"
    transform="translate(-68.57 -53.4)"
  /><path
    class="cls-62"
    d="M97.59,178.1c0-2.6-.08-4.46-1.84-6.52C98.76,172.94,99.27,175,97.59,178.1Z"
    transform="translate(-68.57 -53.4)"
  /><path
    class="cls-63"
    d="M219.63,109.07c-.61-2.77.19-4.58.67-6.42C221.18,104.61,220.69,106.45,219.63,109.07Z"
    transform="translate(-68.57 -53.4)"
  /><path
    class="cls-64"
    d="M219.14,110.52a7.76,7.76,0,0,1-1.91,6A9.77,9.77,0,0,1,219.14,110.52Z"
    transform="translate(-68.57 -53.4)"
  /><path
    class="cls-65"
    d="M236.79,67.16,233.1,70.5c-.29.26-.61.45-1,.12a.6.6,0,0,1,.06-1c1.27-1.11,2.16-2.77,4-3.13Z"
    transform="translate(-68.57 -53.4)"
  /><path
    class="cls-66"
    d="M221.68,92.79c-.51-2.62.1-4.39,1.24-6.64C223.44,88.76,222.79,90.52,221.68,92.79Z"
    transform="translate(-68.57 -53.4)"
  /><path
    class="cls-67"
    d="M199.66,131.17l4.92-2.09.34.77A5.21,5.21,0,0,1,199.66,131.17Z"
    transform="translate(-68.57 -53.4)"
  /><path
    class="cls-68"
    d="M230.56,72.42a8.91,8.91,0,0,1-3.25,4.43A5.38,5.38,0,0,1,230.56,72.42Z"
    transform="translate(-68.57 -53.4)"
  /><path
    class="cls-69"
    d="M69.33,166.05a20.78,20.78,0,0,1,.34,6.49C68.32,171,68.21,169.6,69.33,166.05Z"
    transform="translate(-68.57 -53.4)"
  /><path
    class="cls-70"
    d="M89.55,217.55c-2,.85-3.13.87-4.15,0a.75.75,0,0,1,0-.7C86.64,216.22,87.64,217,89.55,217.55Z"
    transform="translate(-68.57 -53.4)"
  /><path
    class="cls-71"
    d="M74.23,157.64c.52-2.22,1.81-2.48,3-2.86C77.2,156.44,75.86,156.7,74.23,157.64Z"
    transform="translate(-68.57 -53.4)"
  /><path
    class="cls-72"
    d="M335.75,222.59c-.1-.14-.2-.28-.29-.43q.07-22.66.14-45.34c0-16,0-31.94-.05-47.91,0-2.46.46-3.4,3.22-3.37,16,.14,32,.07,47.92.06,1.16,1,1,2.4,1,3.7q0,42.84,0,85.67c0,1.32.05,2.68-.93,3.76-.64,1.45-2.29,1.35-3.33,2.17-1.17-.77-1.26-2.06-1.48-3.25-.68-3.81-1.48-7.59-2.16-11.4a4.74,4.74,0,0,0-4-4.2c-2.39-.56-4.77-1.15-7.18-1.63-1.1-.22-2.27-.32-3.06-1.29a65.65,65.65,0,0,1,.21-10.95,3.21,3.21,0,0,1,1.29-2.15c6.51-5.32,9.54-12.76,12.37-20.31a14.75,14.75,0,0,1,.91-2.07c.13-.24.29-.47.43-.71.42-.7.64-1.54-.23-1.89-1.19-.48-.95.7-1.16,1.29-.09.26-.12.54-.21.81-2.82,6.17-6.31,11.79-12.54,15.14-.87.46-1.68,1.32-2.83.64a3,3,0,0,1-.44-2c.92-1.81,1.76-3.65,1.4-5.78.3-.73,1-1.38-.23-2.08-1.67-1-4.47-.76-5.64.71-1.5,1.9-.44,3.28,1,4.54a3.21,3.21,0,0,1,1.11,1.23,2.83,2.83,0,0,1,.08,1.26A2.6,2.6,0,0,1,360,178.6c-3.95-.91-6.66-3.74-8.6-6.85a32.3,32.3,0,0,1-4.33-14.18c.05-.35.16-.71.2-1.07.07-.67.09-1.41-.78-1.47s-.92.72-1,1.36a12.71,12.71,0,0,0,0,1.38c.45,3.46.82,6.92,1.25,10.38a26.08,26.08,0,0,0,5.6,12.8,9.17,9.17,0,0,1,1.92,7.07c-.44,4.18-1.6,8.33-1,12.59a14.59,14.59,0,0,1,.23,3.3c0,2.83.07,5.66-.05,8.48-.11,2.52-1.3,4.45-3.74,5.11a60.77,60.77,0,0,0-12.31,4.93A1.81,1.81,0,0,1,335.75,222.59Z"
    transform="translate(-68.57 -53.4)"
  /><path
    class="cls-73"
    d="M436.72,218.61c.82-1.69,1.55-3.46,3.41-4.34,1.47.37,1.92,1.73,2.64,2.8a45.08,45.08,0,0,0,11.89,12.38c8.27,5.63,17.08,6.6,26.26,2.17,10.25-5.4,16.3-14.46,20.94-24.56a103.4,103.4,0,0,0,8.76-35.58c1.45-18.66-.51-36.8-7.67-54.18-3.6-8.72-8.42-16.7-15.75-22.91a33.22,33.22,0,0,0-3-2.16c-10.17-7.29-23.63-5.79-33.08,2.82a36.71,36.71,0,0,0-5.25,5.54,34.44,34.44,0,0,1-3,4.22c-1.67,1.76-2.55,4-3.87,6-.59.64-.36,1.63-1,2.26a20.83,20.83,0,0,0-1.91,4.48,113.77,113.77,0,0,0-7.76,35.52,131.59,131.59,0,0,0,2.89,36.24,2.48,2.48,0,0,1-.17,2.17c-1,1.54-2.73,2.16-4.13,3.19-4-14.18-4.52-28.7-3.76-43.24a114.63,114.63,0,0,1,10.52-42.84C438,99.45,443.66,91.12,452,85.14c13-9.24,26.75-7.88,38.35,2.39,11,9.7,16.84,22.45,20.95,36.22,4.54,15.21,5.75,30.77,4.92,46.47-.8,15.07-4,29.72-10.51,43.43-4.84,10.17-11.17,19.23-21.09,25.28a28.94,28.94,0,0,1-32.45-1.6A57.49,57.49,0,0,1,438,221.72,20.45,20.45,0,0,1,436.72,218.61Z"
    transform="translate(-68.57 -53.4)"
  /><path
    class="cls-74"
    d="M386.78,218.73l0-87.73c0-1.8,0-3.6-.06-5.4l.14,0a1.59,1.59,0,0,1,2.23,0c6.78,0,13.56,0,20.34,0,1.36,0,2.48.08,2.45,1.82a211.87,211.87,0,0,0-2.6,29.54c-.07,15.4,1.22,30.64,5.37,45.54A243.22,243.22,0,0,1,386.78,218.73Z"
    transform="translate(-68.57 -53.4)"
  /><path
    class="cls-17"
    d="M447.07,204.31c1.6-2.5,3-5.13,5.34-7.09,1.21.16,1.58,1.25,2.24,2,3,3.55,6.26,6.84,10.89,8.29,6.45,2,11.74-.43,16.34-4.61,5.49-5,8.55-11.54,10.59-18.48,4.74-16.14,4.49-32.22-1.42-48.08a5.88,5.88,0,0,1-.31-.79,33.74,33.74,0,0,0-4.47-8.61,27.51,27.51,0,0,0-7.79-7.75c-8.09-4.87-16.86-2.79-23,5.25a13.62,13.62,0,0,1-1.2,1.6,16.09,16.09,0,0,0-3.49,5.56,85,85,0,0,0-3.38,8.42,33.38,33.38,0,0,0-1.63,6.53,85.87,85.87,0,0,0-.21,30.83c.22,1.28.64,2.58.13,3.89a19,19,0,0,1-6.08,4.47,3.2,3.2,0,0,1-1.37-2.37c-3.89-18.56-3-36.79,3.84-54.6.85-2.21,2-4.29,3-6.4a42.77,42.77,0,0,1,9.09-11.8c7-6.65,15.09-8.51,24.19-4.65,11.05,6.15,16.68,16.3,20.55,27.77a83.92,83.92,0,0,1,4.3,26.45c.1,16.65-2.62,32.75-12.19,47a44.67,44.67,0,0,1-7.81,8.55c-10.49,7.69-21.56,5.9-30.34-2.89C450.54,210.37,447.86,208,447.07,204.31Z"
    transform="translate(-68.57 -53.4)"
  /><path
    class="cls-75"
    d="M491.41,135.68c2.59,4.82,3.58,10.13,4.27,15.44,1.86,14.32.66,28.31-5.61,41.55-2.49,5.27-5.79,10-10.77,13.26-6.57,4.32-13.51,4.06-19.79-.71a25.23,25.23,0,0,1-7.1-8c2-4.83,5.3-8.92,7.78-13.48.22-.4.36-.85.54-1.27,1.25-1.28,2.22-.76,3.21.4s1.91,2.48,3.49,3c.57,0,.94.64,1.67.53.36-2.33-.78-4.82.6-7.07,6.17-3.33,9.26-9.77,8.69-17.31-.28-3.7-1.37-7.21-2-10.82,2.45-2.66,2.38-3.17-.75-5.38-2.18-1.54-2.33-2.32-.62-4.25.61-.68,1.12-1.3.84-2.24-1.05-3.52-.47-7.13-.6-10.71a23,23,0,0,0-.68-6.43c-.71-2.19.55-3.28,2.78-2.53,3.25,1.09,6.45,2.26,7.33,6.23.22,1,.94,1.71,2.1.85a25.75,25.75,0,0,1,4.5,8.52c-.22.14-.53.41-.43.58C491.07,136.18,491.2,135.65,491.41,135.68Z"
    transform="translate(-68.57 -53.4)"
  /><path
    class="cls-73"
    d="M165.63,289.42a3.16,3.16,0,0,1-3.31-2.64c-3.89-13.54-7.8-27.07-12-40.52-1-3-.65-5,1.54-7.42,6-6.63,11.59-13.6,17.37-20.42A11.35,11.35,0,0,1,171,217a103.16,103.16,0,0,1,9.58,23.27c.18,1.1-.78,1.09-1.39,1.39-3.62,1.79-3.9,5.13-.61,7.6a6.28,6.28,0,0,1,1.74,1.38,3.67,3.67,0,0,1,.35,2.64,10.34,10.34,0,0,0-3.31,8.92c.13,1.78,0,3.57,0,5.36,0,4.3,0,4.28,4.45,4.32,2,0,4-.26,5.9.36,3.64,3.69,4.55,8.34,4.61,13.27a5.33,5.33,0,0,0,0,1.91c.06,7.51-1.71,14.75-3.25,22-.29,1.4-1.21,1.17-2.13,1.21-1.62.08-1.52-1.09-1.47-2.13.23-5.28.13-10.59,1-15.84a6.43,6.43,0,0,0-1.42-5.79,35.18,35.18,0,0,1-7.33-10c.26,2.68.8,4.77,1,6.9.18,1.65.73,3.38-.57,4.87-1.93-.94-3.75.28-5.64.32C170.24,289.07,167.94,289.28,165.63,289.42Z"
    transform="translate(-68.57 -53.4)"
  /><path
    class="cls-11"
    d="M192.32,287.44c-.79-5.09-1.68-10.16-4.38-14.69a31.54,31.54,0,0,1-1.19-13.27c.12-1,1-1.56,1.88-1.93,1.48-.61,3-1.22,4.4-1.91,3.26-2.14,3.94-4,2.68-8a11.86,11.86,0,0,1-.18-7.24c2.71-2,6-2.44,9.14-3.43,5.54-1.76,11-3.78,16.65-5.2-1.88,18.3-7.81,35.34-16.07,51.66-3.46,1.23-6.94,2.35-10.67,2.3C193.35,285.75,192.29,285.82,192.32,287.44Z"
    transform="translate(-68.57 -53.4)"
  /><path
    class="cls-2"
    d="M135.63,312.51c-4.27-3.84-8.56-7.68-12.82-11.53-2.29-2.06-1.7-5-1.78-7.47-.27-8.57-1-17.11-1.29-25.68-.12-3.33.23-3.58,3.52-2.07a110.08,110.08,0,0,1,19.22,10.77c5.78,4.23,11.68,8.31,16.48,13.7-2.73.23-5.46.6-8.19.65a3.78,3.78,0,0,0-3.58,2.17C143.4,299.57,139.5,306,135.63,312.51Z"
    transform="translate(-68.57 -53.4)"
  /><path
    class="cls-76"
    d="M445.91,122.27a89,89,0,0,0-8.12,26.65,101.43,101.43,0,0,0,1.88,36.83,31.7,31.7,0,0,1-8.53,5.73,113.49,113.49,0,0,1-3.83-33.91,112.86,112.86,0,0,1,6-34.73c.74-2.13,1.65-4.21,2.48-6.31,2.59-.49,1.16-2.93,2.07-4.24.89-.22-.21-1.21.57-1.48,1.67-1.86,3.3-3.76,3.88-6.29l2.82-4a1.25,1.25,0,0,1,1.94.45c1,2.31,2.09,1,3.23.27.62-.43,1.13-1,1.71-1.47s1.12-.83,1.78-.33a1.35,1.35,0,0,1,.29,2c-3.13,2.78-2.44,6.75-3.33,10.22-.59,2.3-.56,4.76-3.34,6C445.54,118.5,446.68,120.81,445.91,122.27Z"
    transform="translate(-68.57 -53.4)"
  /><path
    class="cls-77"
    d="M445.75,181.28a74,74,0,0,1-.51-35.26c1.32-1.93,1.24-4.24,1.71-6.41.42-3.07,2.17-5.61,3.33-8.38,1.57-1.58,2.33-3.68,3.57-5.47l.87-1.37c2.08-1.76,4.12-3.54,6.35-5.12,1.41-1,2.52-1,3.33.31s-.56,2-1.52,2.46c-2.22.95-3.8,2.14-3,4.87.85.56,1.9-.94,2.59.2.58,1-.25,1.78-.67,2.6a12.77,12.77,0,0,0-1.54,6.55c.25,4.69-.65,9.46.9,14.08.31.91-.14,1.85-.34,2.78-.58,2.66-1.74,5.19-1.75,8,0,1.67-.76,2.65-2.62,2.58-.9,0-1.93-.29-2.61.66-.55,1.6-1.9.74-2.9.89-1.16.18-2.36.18-4.05.29a65.84,65.84,0,0,0,7.94,7.92c1,1.34-.64,1.46-1,2.18A43.42,43.42,0,0,1,445.75,181.28Z"
    transform="translate(-68.57 -53.4)"
  /><path
    class="cls-72"
    d="M335.62,243.71l.09-18c2.39-1.43,5.15-.87,7.71-1.38,3.51-.69,7.06-1.24,10.59-1.82,4.26-.71,6.73-3.05,7.65-7.2.22-1,.49-2,.77-3,.39-2.16,1.76-3,3.85-2.86h.56c6.47-.14,6.49-.14,8.38,5.85a28.44,28.44,0,0,0,2.63,5.3c.48.84,1.47,1.59.83,2.78-12.3,6.25-24.5,12.7-37.23,18C339.53,242.21,337.91,243.84,335.62,243.71Z"
    transform="translate(-68.57 -53.4)"
  /><path
    class="cls-78"
    d="M453.88,164.34c.12-1.67,1.41-1.14,2.35-1.24s2.15.19,2.09-1.22c-.13-3.65,1.21-6.93,2.27-10.29.56-1.75-1.17-2.86-1.12-4.55.14-4.24,0-8.49.09-12.74a12.36,12.36,0,0,1,2.82-7c-.82-.31-1.05.2-1.37.47a1.71,1.71,0,0,1-1.8.53c-1-.39-.13-1.14-.25-1.72-.56-2.71.42-4.4,3.2-5.13.7-.19,1.86-.2,2.09-1.2.14-.64-.63-.82-1.11-1.09-1.2-.69-1.3.71-1.95,1-2.44,1-3.88,3.47-6.47,4.21,8.76-12.21,24.25-11.07,32.08,2.35-.07.64.26,1.56-.36,1.84-.83.37-1.17-.7-1.75-1.1-1.71-1.2-.6-3.72-2.51-5s-4.06-1.53-6-2.47a1,1,0,0,0-1.2,1.33c1.93,3.86.74,8,1,11.92.14,2.15-.14,4.34.82,6.37.44.93.21,1.48-.65,2.1-2.52,1.81-2.46,2.18.3,3.68s3.52,3.72,1.53,5.42c-.31.26-.88.22-1.32.31-1.14-.26-1.39-1.26-1.79-2.13-2.51-4-6-4.48-8.66-1.18-3.82,3.77-5,8.56-5.36,13.67-.07.94,0,1.92-.78,2.64Z"
    transform="translate(-68.57 -53.4)"
  /><path
    class="cls-7"
    d="M378.68,223.36c-2.3-3.75-5.09-7.3-5-12.05,0-1.12-.82-1.08-1.58-1.08a33.13,33.13,0,0,1-5.37-.06c-2.21-.36-3.37.34-3.74,2.48a7.74,7.74,0,0,0-3.83-3.4c-2.41-1.24-5.32-2.14-6.24-5.26l-.31-3.32c-.36-3.35.17-4,3.32-3.59,3.31.46,6.75.31,9.89,1.77,3.36.79,6.72,1.6,10.09,2.37,2.73.63,4.3,2,4.73,5.06.69,4.91,1.85,9.75,2.81,14.62.19,1.28.44,2.55.56,3.83.06.64.85,1.55-.26,1.9a2.34,2.34,0,0,1-2.6-.36C380.29,225.33,379.5,224.33,378.68,223.36Z"
    transform="translate(-68.57 -53.4)"
  /><path
    class="cls-73"
    d="M460.06,164.16c-.15-6.34.94-12.27,5.71-16.95,3.93-2.75,7.23-2.08,9.58,1.93.43.67.86,1.35,1.3,2a27.41,27.41,0,0,1,.52,21.85c-1.34,3.32-3.35,6.13-7.36,6.58-2.09-2.24-2-4.9-1.49-7.64a1.13,1.13,0,0,1,.49-.66,10.43,10.43,0,0,0,3.55-14.68c-1.35-2.06-3.27-2.28-4.95-.54a8,8,0,0,0-1.92,5.21A1.61,1.61,0,0,0,466.7,163c.58.24,1.64.17,1.23,1.36Z"
    transform="translate(-68.57 -53.4)"
  /><path
    class="cls-79"
    d="M178.19,288.71a26,26,0,0,0-.47-6.7c-.38-2.14-1-4.32-.19-6.64,1.74,4.4,5.48,7.4,7.52,11.55-2,8.07-6.17,15.25-9.7,22.68-.68,1.42-1.86,1.2-2.9,1-1.35-.26-.68-1.41-.47-2.08,1.65-5.37,3.38-10.73,5.08-16.09C177.46,291.2,177.82,290,178.19,288.71Z"
    transform="translate(-68.57 -53.4)"
  /><path
    class="cls-80"
    d="M239.42,258.56c0,1.7.35,3,2.45,2.87.28.37.78.74.79,1.12,0,3.53,2.13,6.16,3.78,9-1.25,1.07-1.45,2.91-2.84,3.88-1.49,3.91-5,5.42-8.46,6.82a34.27,34.27,0,0,1-5.71,1.41c-.59.12-1.39.32-1.69-.54s.46-1.13.9-1.58c1.17-1.24,3.24-1.5,3.72-3.47,4.92-1.31,7.39-5,6-9.66C237.29,264.83,239,261.82,239.42,258.56Z"
    transform="translate(-68.57 -53.4)"
  /><path
    class="cls-81"
    d="M467.93,164.33c-.62-1.49-2.84.3-3.22-1.5a9,9,0,0,1,.91-5.5c.77-1.73,1.86-3.34,4.14-3.31s3.13,1.74,3.91,3.51a14.07,14.07,0,0,1,.41,9.67c-.72,2.59-2.22,4.63-5.38,4.47-.8-.61,0-1.7-.68-2.33Z"
    transform="translate(-68.57 -53.4)"
  /><path
    class="cls-82"
    d="M127.66,326.12q-10.43,1.63-20.85,3.28c-1.32.21-2-.13-1.86-1.59,6.53-1,13.06-2,19.57-3.08,1.4-.24,2.78-.27,4.17-.39C128.68,325.13,128.06,325.56,127.66,326.12Z"
    transform="translate(-68.57 -53.4)"
  /><path
    class="cls-83"
    d="M468,169.34c.7.64.28,1.6.68,2.33-.41,2.75.55,5.3,1.11,7.92,0,1.84,0,3.69.12,5.54.05.94,1.1,2.26-.07,2.71s-2-.8-2.43-2C467.6,180.36,467.18,174.82,468,169.34Z"
    transform="translate(-68.57 -53.4)"
  /><path
    class="cls-84"
    d="M175.28,314.58c-1.1-.51-3.7,1.06-3.8-1.1-.11-2.61,2.39-.52,3.66-.92,1-.33,2.35-1,3.59-.22.58.35,1.23.6,1.16,1.42-.09,1-.9.79-1.51.81C177.44,314.61,176.49,314.58,175.28,314.58Z"
    transform="translate(-68.57 -53.4)"
  /><path
    class="cls-85"
    d="M190,314.49c-1.12,0-2.24,0-3.35,0a1,1,0,0,1-1-1.09c0-.67.36-1.12,1-1a19.27,19.27,0,0,0,5.57-.16c.78-.11,2.06.15,2,1.46s-1.22.84-2,.91a20.9,20.9,0,0,1-2.24,0Z"
    transform="translate(-68.57 -53.4)"
  /><path
    class="cls-86"
    d="M390.26,231.27c-2.6,1.26-5.19-.21-7.78.47-.9.24-.85-.78-.86-1.42,0-.85.21-1.39,1.26-1.46C385.66,228.69,387.73,230.61,390.26,231.27Z"
    transform="translate(-68.57 -53.4)"
  /><path
    class="cls-87"
    d="M319.73,269.88c.81,1.49-.31,1.62-1.25,1.58-1.93-.08-4,.08-5.74-.61s-1.67-2.19.08-3.26c1.72.86,3.26,2.25,5.47,1.53C318.76,269,319.34,269.45,319.73,269.88Z"
    transform="translate(-68.57 -53.4)"
  /><path
    class="cls-88"
    d="M319.73,269.88c-1.41-.85-3,.3-4.36-.29-1-.43-2.19-.72-2.55-2,.05-1-1.68-1.24-.95-2.46,1.69,1,2.83,1,2.84-1.43a8.59,8.59,0,0,1,.43-1.89c0,1.29.39,2.77-.11,3.84-1.28,2.77.39,2.9,2.3,3.08C318.25,268.82,319.51,268.31,319.73,269.88Z"
    transform="translate(-68.57 -53.4)"
  /><path
    class="cls-89"
    d="M251.83,297.21c-.66,0-1.31,0-2,0s-1.11-.21-1.13-.94c0-.92.65-1,1.32-1.06.85-.06,1.62.47,2.6-.09a1.44,1.44,0,0,1,2.11,1.16c.13,1.46-1.15.75-1.83.92A4.56,4.56,0,0,1,251.83,297.21Z"
    transform="translate(-68.57 -53.4)"
  /><path
    class="cls-90"
    d="M243.6,275.41c.22-1.28,1.24-2.23,1.29-3.66,0-1.07,1-.29,1.55-.22.34,1,1.81,1.46,1.55,2.82Z"
    transform="translate(-68.57 -53.4)"
  /><path
    class="cls-91"
    d="M225.4,283.45c1.13.64.85,2.34,1.7,3.42a1.28,1.28,0,0,1-.33,1.78c-.32.25-.79.39-1,0-.78-1.49-1.63-3-1.55-4.74C224.25,283.54,224.67,283.35,225.4,283.45Z"
    transform="translate(-68.57 -53.4)"
  /><path
    class="cls-92"
    d="M453.87,175.62c-.19-1,1.1-1.26,1-2.18.82-.09,1.23.29,1.13,1.11C455.84,175.94,454.69,175.48,453.87,175.62Z"
    transform="translate(-68.57 -53.4)"
  /><path
    class="cls-9"
    d="M468.62,252.35a30.81,30.81,0,0,0-2.6,9c-.18,2-2.07,1.39-3.33,1.69.63-1.92,1.14-3.91,1.94-5.77A9.28,9.28,0,0,1,468.62,252.35Z"
    transform="translate(-68.57 -53.4)"
  /><path
    class="cls-93"
    d="M309.48,218.82q-.56,3.24-1.09,6.5a13.8,13.8,0,0,1-1.69,9.38c-.44,4.41-2.08,5.18-5.63,2.55-1-.75-2.36-1.24-2.84-2.6a2.3,2.3,0,0,0-.05-3.07c-1.8-2.39-2.47-5.27-3.19-8.12a3,3,0,0,1,1.95-3.87c1.3-.58,2.56-1.21,3.9-1.71,3-1.16,3.27-1.7,2.44-4.84a1.88,1.88,0,0,1,.4-1.16c1.95-.75,1.94,1.25,2.82,2,.08.37.45-.1.11.07-.13.06-.17,0-.22-.19-.27-.86-.54-1.7.82-1.81,0,.19,0,.37,0,.56.06,1-.25,2.21,1,2.65,1.52.53,1-1.48,1.9-1.89C311.69,215.47,309,216.94,309.48,218.82Z"
    transform="translate(-68.57 -53.4)"
  /><path
    class="cls-94"
    d="M295.93,238.08c3.16.36,7.61,4.2,7.91,6.82-2.34,7.41-4,8.52-11.79,9.17-3.47.29-6.93.47-10.41.44-1,0-2.1.23-3-.52a1.13,1.13,0,0,1,0-1.28c3.38-2.46,7.41-2.84,11.35-3.23,3.57-.35,4.41-.88,4.74-4.47A38.67,38.67,0,0,1,295.93,238.08Z"
    transform="translate(-68.57 -53.4)"
  /><path
    class="cls-95"
    d="M304,211.86l-.16,1.34a67.85,67.85,0,0,0-7.2,3.57,1.73,1.73,0,0,1-1.83.26,5.57,5.57,0,0,1,3-6.35c1.74-1,1.87-2.29.58-4s-.6-6.11,1.06-7.52c.65-.56,1.54-1.22,2.3-.84,2.42,1.21,4.76,2.6,7.08,4,.23.14.08.89.1,1.36a1.27,1.27,0,0,1-.74,1.38c-1.73.48-2.62,1.93-3.81,3-3.11-.67-1.95-3.18-2.21-4.77-.79,2.69,1.15,5.06,1.91,7.71A1.31,1.31,0,0,1,304,211.86Z"
    transform="translate(-68.57 -53.4)"
  /><path
    class="cls-96"
    d="M294.76,217c3-1.23,5.4-4,9-3.83,1.51,2.66,1.25,3.56-1.56,5a17.79,17.79,0,0,1-3.84,1.61c-2.79.61-3.35,2.24-2.5,4.68.91,2.6,1.34,5.39,3.51,7.43,1.87,1.77.22,2.27-1.17,2.78l-1.15-.73c-.69-3.38-2.74-6.17-4.09-9.26C291,220.15,290.92,220.19,294.76,217Z"
    transform="translate(-68.57 -53.4)"
  /><path
    class="cls-97"
    d="M305.38,182.9c-2.73.72-3.34-.45-3.39-3s.72-3.51,3.45-3.43c2.43.07,3.49.46,3.4,3.21C308.75,182.25,308.27,183.72,305.38,182.9Z"
    transform="translate(-68.57 -53.4)"
  /><path
    class="cls-98"
    d="M299.23,179.87c.9,3-.87,3-3.3,3.23-3.23.23-2.93-1.52-3.14-3.72-.33-3.28,1.7-2.68,3.66-2.89C299.18,176.2,299.73,177.47,299.23,179.87Z"
    transform="translate(-68.57 -53.4)"
  /><path
    class="cls-99"
    d="M304.37,207.89c-.14-3.19,3.47-2.3,4.54-4.17,1.91,3.45,1.51,5.28-1.56,7.43-.16.11-.1.53-.14.81-.71.63-.44,1.54-.69,2.34-1.52-.13-1.19-2.19-2.57-2.44a.93.93,0,0,0-.17-.49C303.26,210.09,304,209,304.37,207.89Z"
    transform="translate(-68.57 -53.4)"
  /><path
    class="cls-93"
    d="M315.2,222.2c-4.13,2.61-4.28.48-5.74-3.42.47-.08.94-.18,1.11-.71.24-.72.67-1.18,1.46-.8a1.31,1.31,0,0,1,.73,1.87c-1.12,1.7-1.66,2.84,1.24,2.46C314.36,221.55,314.8,222,315.2,222.2Z"
    transform="translate(-68.57 -53.4)"
  /><path
    class="cls-100"
    d="M278.63,252.71c0,.43,0,.85,0,1.28-1,1.28-3.47.83-3.54,3.3C274,254.24,275.39,252.67,278.63,252.71Z"
    transform="translate(-68.57 -53.4)"
  /><path
    class="cls-101"
    d="M447.07,204.31c3.39,4.53,6.63,9.17,11.63,12.17,8,4.81,16.53,4.41,24-1.19a7.12,7.12,0,0,0,3.84-1.53c.9-.8,1.54-.31,1.53.92,0,2.25-1.42,3.9-4.05,4.71-.37.09.21.52,0,.21,0-.06,0-.12.22-.16a5.78,5.78,0,0,0,3-1.45,2.21,2.21,0,0,1,3.65.91c.29.77.32,1.35-.69,1.77-2.8,1.14-4.71,2.92-4.1,6.34a1.88,1.88,0,0,1-1.07,2.14c-1.74.55-2.52,2.16-3.9,3.08-10,5-20.72,3.4-29.69-4.27a53.71,53.71,0,0,1-11.28-13.7C441.94,210.59,444.85,207.7,447.07,204.31Z"
    transform="translate(-68.57 -53.4)"
  /><path
    class="cls-102"
    d="M221.32,231.81a3.64,3.64,0,0,1-2.29,1.48q-11.58,3.53-23.14,7.08a.7.7,0,0,1,0-1.07c3.31-.28,1.7-2,1.06-3.5.09-.45,0-1.11.3-1.31.75-.56,1,.33,1.1.73.66,2.31,2.06,2,3.86,1.42,5.33-1.75,10.71-3.32,16.06-5a7.16,7.16,0,0,1,3-.34A.87.87,0,0,1,221.32,231.81Z"
    transform="translate(-68.57 -53.4)"
  /><path
    class="cls-103"
    d="M237.56,233.43l-3.7.18c-1.16-1.13-1-2.29-.14-3.54,1.34-1.95,2.61-3.94,3.94-5.9a3.64,3.64,0,0,0,.94-2.86c-.15-.77-.09-1.65,1-1.69a3,3,0,0,1,2.08.54c.65.75,0,1.47-.6,2.17-2,2.43-2.82,5.53-4.29,8.27C236.1,231.8,237.25,232.49,237.56,233.43Z"
    transform="translate(-68.57 -53.4)"
  /><path
    class="cls-104"
    d="M103.86,314.61c-2,.05-3.9.13-5.85.11-1.07,0-2.06,0-2.54,1.18-.92-.09-1.25,1-2.09,1.05a39.54,39.54,0,0,1-5.27-9.63,7.52,7.52,0,0,1,.52-7.05c2.39-3.85,4.22-8.29,9.13-9.82,1.19.66,2.31,2.12,3.71.32A2,2,0,0,1,103,291c2.2,1.28,2.73,3.69,3.86,5.69.55,1,1,2,1.61,3.05,1-1.73-1.08-3.76.74-5.25a2.62,2.62,0,0,1,2.59.29A22,22,0,0,1,114,307.33c-.19,2.16-1.76,2.86-4,2.07-2-.73-3.3-2.48-5-3.63-.84-2.85-.09-5.8-.38-8.25,0,5.14.06,10.71-.09,16.28C104.56,314.18,104.2,314.43,103.86,314.61Z"
    transform="translate(-68.57 -53.4)"
  /><path
    class="cls-105"
    d="M102.67,291.22l-.89-.3c-2.25.25-3.46-.92-4.07-2.94-.06-.19.15-.67-.31-.55-.13,0-.22.47-.44.65-1.47-1.55-3.21-3.28-1.79-5.44,1.55-2.36,4.1-1.62,6.39-1a1.4,1.4,0,0,1-.5.6c-.33.19.09,0-.25.13-.83.4-1.84.66-1.55,1.93.13.54.19,1.22.73,1.45,1.23.53,1.36-1,2.19-1.28a1,1,0,0,1,.93.68C103.61,287.25,105,289.37,102.67,291.22Z"
    transform="translate(-68.57 -53.4)"
  /><path
    class="cls-106"
    d="M110.5,289.2l-2.71.05a1.94,1.94,0,0,1-2.37.08c-.79-1.35-.88-2.58.65-3.51,2.49,0,4.2-1.9,6.3-2.8,1.56,2,1.1,4.15.88,6.32Z"
    transform="translate(-68.57 -53.4)"
  /><path
    class="cls-107"
    d="M97,288.08c.39-1.18-1-2.24,0-4,1.38,2.65,1.36,6.12,4.8,6.8-.14,1.23-.8,1.62-2,1.7-1.77.12-1.42-1.36-2-2.17Z"
    transform="translate(-68.57 -53.4)"
  /><path
    class="cls-108"
    d="M93.38,317c.3-1.13.66-2.16,2.09-1.05.34.43.72.83,1,1.28.53.78,2.17,1.58,1.28,2.34a2.55,2.55,0,0,1-3.66-.79A9.36,9.36,0,0,1,93.38,317Z"
    transform="translate(-68.57 -53.4)"
  /><path
    class="cls-109"
    d="M106.07,285.82c-.84,1-.6,2.16-.43,3.3-2.08-.46-1.75-2.73-2.92-3.88l-.56-.56a2.28,2.28,0,0,1-1.3-2.84l.7-.16A12.79,12.79,0,0,1,106.07,285.82Z"
    transform="translate(-68.57 -53.4)"
  /><path
    class="cls-110"
    d="M111.82,294.74l-2.79.17c-1-.16-.81-1.41-1.84-1.92-1.48-.74-.64-2,.62-2.69,2.18,0,2.8,1.78,3.66,3.27C111.59,294,111.7,294.35,111.82,294.74Z"
    transform="translate(-68.57 -53.4)"
  /><path
    class="cls-111"
    d="M103.86,314.61c1-2.34.41-4.81.49-7.21a74.31,74.31,0,0,1,.69-10.83v9.2c0,2.4,0,4.8-.11,7.19C104.91,313.68,105.32,314.79,103.86,314.61Z"
    transform="translate(-68.57 -53.4)"
  /><path
    class="cls-5"
    d="M382.68,96.51c-1.3-.88-1.52-2.25-2.15-3.33-.43-.73-.86-1.52-.06-2.3.39-.39,1.11-.44,1.19,0,.35,1.68,2.6,2.27,2.36,4.13C384,95.5,383.2,95.94,382.68,96.51Z"
    transform="translate(-68.57 -53.4)"
  /><path
    class="cls-5"
    d="M389.06,125.59l-2.23,0c0-.37,0-.74,0-1.12,0-.73-.15-1.75.75-1.89s.85,1,1.13,1.63A11.36,11.36,0,0,1,389.06,125.59Z"
    transform="translate(-68.57 -53.4)"
  /><path
    class="cls-5"
    d="M381.7,104.41a5.18,5.18,0,0,1,.22,4.09A3.41,3.41,0,0,1,381.7,104.41Z"
    transform="translate(-68.57 -53.4)"
  /><path
    class="cls-5"
    d="M383.75,123.2a.9.9,0,0,1-.73,1c-.41.09-.69-.2-.72-.62s-.13-1,.47-1.14S383.57,122.75,383.75,123.2Z"
    transform="translate(-68.57 -53.4)"
  /><path
    class="cls-112"
    d="M195.92,239.3l0,1.07c-.82,3.62,1,6.95,1.16,10.48.12,2.77-1.26,4.32-3.54,5.39-2.12-1.41-3.37-3.94-6-4.67-.94-2.27,0-4.45.33-6.67,0-.77,0-1.55.05-2.33h0c2.11-.82,2.9.15,3.07,2.16.12,1.49-.34,3.18,1.6,4.84a48.79,48.79,0,0,0,.12-9.16c.38-1-1.7-2.15,0-2.9S195.31,237.8,195.92,239.3Z"
    transform="translate(-68.57 -53.4)"
  /><path
    class="cls-113"
    d="M180,250.8c-2-.76-3.65-1.72-4.13-4.12-.62-3.17.2-4.85,3.26-5.73.53-.15,1.13-.09,1.47-.66.74-.08,1.42-.91,2.24-.15s.18,1.65,0,2.47a29.38,29.38,0,0,0-1.31,6.55C181.4,250.19,181.38,251.09,180,250.8Z"
    transform="translate(-68.57 -53.4)"
  /><path
    class="cls-114"
    d="M180,250.8c2.23-.44.82-1.61.41-2.43s-1.19-1.68.61-1.72c1.12,0,.76-.9.52-1.33-.83-1.55,0-2.21,1.28-2.71.25,1,.34,2.08,1.64,2.31,1.59,4,1.08,6.41-1.67,7.87-.78.33-1.57.73-2.42.19C179.7,252.34,180.05,251.53,180,250.8Z"
    transform="translate(-68.57 -53.4)"
  /><path
    class="cls-115"
    d="M182.34,252.19c2-.48,2.38-1.87,2.18-3.68-.12-1.18-.07-2.39-.09-3.59,2.55.56.22,3.13,1.93,4.28.76-1.36,0-3.27,1.47-4.3v6.72C186.17,253.5,184.32,253.49,182.34,252.19Z"
    transform="translate(-68.57 -53.4)"
  /><path
    class="cls-116"
    d="M107.81,290.3c-2.17,2.81.13,2.5,1.81,2.47.35,1-1.84,1-.59,2.13,0,2.12.83,4.22.24,6.73-1.83-1.53-2.35-3.54-3.28-5.28s-1.44-3.92-3.32-5.12c1-2-.12-4,0-6,1.87.62,1.86,2.65,2.92,3.88l2.15.13C107.79,289.6,107.8,290,107.81,290.3Z"
    transform="translate(-68.57 -53.4)"
  /><path
    class="cls-117"
    d="M306.7,234.7c.56-3.13,1.13-6.25,1.69-9.38l1.14,1.35a5.71,5.71,0,0,0,1.54,4.12c1.75,2.2,1.17,3.65-.94,5A2.32,2.32,0,0,1,306.7,234.7Z"
    transform="translate(-68.57 -53.4)"
  /><path
    class="cls-118"
    d="M192.66,240.42c1.75.75.73,2.27.88,3.42a28,28,0,0,1,.05,4.49c0,.86.33,2.07-1.1,2.15a2.14,2.14,0,0,1-2.13-1.86,13.46,13.46,0,0,1-.14-3.91c.13-1.82-.73-2.34-2.35-2.13Z"
    transform="translate(-68.57 -53.4)"
  /><path
    class="cls-119"
    d="M352.92,204a19.07,19.07,0,0,0,8.32,5.35c2,.55,1.61,2,1.75,3.31-1.09,7.36-2.66,9.17-9.75,10.7a87,87,0,0,1-17.53,2.35c0-1,0-2.07,0-3.11,4.27-2.37,8.54-4.69,13.41-5.68,2.31-.47,3.44-2.11,3.44-4.5C352.61,209.6,352.36,206.78,352.92,204Z"
    transform="translate(-68.57 -53.4)"
  /><path
    class="cls-120"
    d="M365.82,198.85a40.16,40.16,0,0,1-9.4-.94c-3.2-.55-3.57-.36-3.81,2.76-1.11-2.72.48-5.36.26-8.06a4.54,4.54,0,0,1,.24-1.1c.7-4.24.8-8.11-2.47-11.78-4.05-4.55-4.77-10.53-5.33-16.4-.19-2-.34-3.94-.51-5.91a1.77,1.77,0,0,1,2.68.1,55,55,0,0,0,3.77,12.6c1.78,3.86,5.2,6.25,8.86,8.25,1.46-.84,2.71-.25,3.93.56,7.33-3.12,11.29-9.32,14.71-16a1.7,1.7,0,0,1,2.34,1c-1.17,2.86-2.43,5.7-3.51,8.59a31.66,31.66,0,0,1-9,13.14,6.17,6.17,0,0,0-2.31,5.66A28.85,28.85,0,0,1,365.82,198.85Z"
    transform="translate(-68.57 -53.4)"
  /><path
    class="cls-121"
    d="M360.61,175.56c-3.26-2-3.87-3.53-2.4-6.15,1.16-2,6.78-2.34,8.09-.39.84,1.24-.49,1.54-1.08,2.15-.34.31-.57.82-1.06.86-2,.18-3.09,1-2.75,3.18C361.45,175.53,361.05,175.82,360.61,175.56Z"
    transform="translate(-68.57 -53.4)"
  /><path
    class="cls-122"
    d="M360.61,175.56c.58-.28.4-.61.17-1.09-.84-1.76-.12-2.69,1.71-2.93l2.73-.37c1.13,2.25.13,4-1.24,5.74a2.48,2.48,0,0,1-3.24-.19C360.69,176.33,360.65,176,360.61,175.56Z"
    transform="translate(-68.57 -53.4)"
  /><path
    class="cls-123"
    d="M347.48,157.52l-2.68-.1c.1-1.13-.73-2.53.68-3.26a1.82,1.82,0,0,1,2.33.3A2.3,2.3,0,0,1,347.48,157.52Z"
    transform="translate(-68.57 -53.4)"
  /><path
    class="cls-124"
    d="M381.09,163.88l-2.34-1c.36-1-.63-2.62,1.12-3.09,1.14-.31,1.7.72,2.18,1.44C382.84,162.41,381.51,163,381.09,163.88Z"
    transform="translate(-68.57 -53.4)"
  /><path
    class="cls-125"
    d="M360.74,176.72l3.24.19.06,2c-1.38.27-2.63-.34-3.93-.56A2,2,0,0,1,360.74,176.72Z"
    transform="translate(-68.57 -53.4)"
  /><path
    class="cls-126"
    d="M481.1,232.23c.93-1.46,1.27-3.34,3.6-3.63.81-.1,1.33-1.55.43-2.6-.34-.4-1.25-.67-.88-1.25.76-1.2,2.87-1.21,3-3,.14-2.46,1.87-1.74,3.84-1.63-1.37-1.79-2-3.64-4-1-1.23,1.63-3.37.24-5.07,1,2.78-1.29,5.69-2.35,5.38-6.61-1.23,2-2.58,3.18-4.67,1.78,12.93-11.37,17.45-26.59,19.23-42.86,1.67-15.34,0-30.36-6.06-44.72-3.75-8.92-9.17-16.46-17.81-21.31a1.4,1.4,0,0,1,1.72-.64c2.12.87,3.79,0,5.48-1.18-1.69-2.14-2.48-4.27-.57-6.83.88-1.16,1.34-2.73-.08-4.1a1.34,1.34,0,0,1-.11-2c7.11,4.32,11.74,10.84,15.6,17.93,6.55,12,9.84,25.06,11.13,38.63A122.74,122.74,0,0,1,507.17,195c-3.37,11.44-8.35,22.07-16.91,30.67A28.4,28.4,0,0,1,481.1,232.23Z"
    transform="translate(-68.57 -53.4)"
  /><path
    class="cls-127"
    d="M484.51,91.64c.08.45,0,1.16.27,1.33,3.24,2.12,1.19,4.29-.13,6.11-1.15,1.6-.11,2.64.3,3.88.26.77,1.73,1.7.34,2.24s-2.12,3.23-4.24,1.6c-1-.74-2-.43-3-.4-13.41-5-22.66,2-29.84,12.35-.8,1.16-1.55,2.35-2.32,3.52a3.91,3.91,0,0,1,0-1.13c.3-1-2.37-2.47.41-3.21,1-.26.23-3.06,2.44-1.68.25.15.47-.46.54-.84.51-2.67,1.41-5.33,1.43-8a6.75,6.75,0,0,1,2.5-5.73c.65-.52.85-1.19.37-1.68-.75-.76-1.15.12-1.44.64-.82,1.5-2.72,1.56-3.7,3-.6.86-1.38.16-1.39-.79,0-1.35-.55-2.16-1.94-2.28,6.67-8.42,14.69-14.24,26.08-13.69A23.87,23.87,0,0,1,484.51,91.64Z"
    transform="translate(-68.57 -53.4)"
  /><path
    class="cls-127"
    d="M442.29,104.52c.29,2.28-1.51,5.21-3.88,6.29C439.58,108.64,440.56,106.35,442.29,104.52Z"
    transform="translate(-68.57 -53.4)"
  /><path
    class="cls-127"
    d="M437.84,112.29c-.16,1.67,1.25,4.11-2.07,4.24A13,13,0,0,1,437.84,112.29Z"
    transform="translate(-68.57 -53.4)"
  /><path
    class="cls-78"
    d="M453.85,125.76c-.82,2.06-1.19,4.43-3.57,5.47C451.19,129.23,452.09,127.21,453.85,125.76Z"
    transform="translate(-68.57 -53.4)"
  /><path
    class="cls-78"
    d="M447,139.61c.06,2.31.61,4.74-1.71,6.41A17.69,17.69,0,0,1,447,139.61Z"
    transform="translate(-68.57 -53.4)"
  /><path
    class="cls-78"
    d="M491.41,135.68c-.24.69.32,1.66-.7,2.12-.66-2-.66-2,.59-2.54A.43.43,0,0,1,491.41,135.68Z"
    transform="translate(-68.57 -53.4)"
  /><path
    class="cls-16"
    d="M182.34,252.19a17.53,17.53,0,0,0,5.49-.57c3.56-.51,4.14,2.64,5.68,4.62a10.67,10.67,0,0,1-2.75,1.36c-3.34.61-3.88,2.62-3.46,5.62s.45,6.35.64,9.53c-3.12,0-6.25-.06-9.37,0-1.44,0-2-.47-2-2,.07-4-.14-8,.09-11.92.15-2.47,1.13-4.75,3.68-5.88Z"
    transform="translate(-68.57 -53.4)"
  /><path
    class="cls-127"
    d="M445.38,110.09a.87.87,0,0,1-1-.78c-.07-.7.58-.86,1.07-1s.88.15.87.68A1.12,1.12,0,0,1,445.38,110.09Z"
    transform="translate(-68.57 -53.4)"
  /><path
    class="cls-78"
    d="M450.24,143.34c-1.87-1.76-1.14-3.24-.59-5.24C450.8,139.88,450.39,141.36,450.24,143.34Z"
    transform="translate(-68.57 -53.4)"
  /><path
    class="cls-78"
    d="M458.32,150.27a1.29,1.29,0,0,1-1.17,1.35c-.72.09-1-.38-1-1a1.22,1.22,0,0,1,1.15-1.33C458,149.15,458.23,149.71,458.32,150.27Z"
    transform="translate(-68.57 -53.4)"
  /><path
    class="cls-75"
    d="M475.35,149.14c-2.73-3-5.82-4.1-9.58-1.93,1.07-2.24,3.25-3,5.09-2.11C472.54,145.94,475.49,146,475.35,149.14Z"
    transform="translate(-68.57 -53.4)"
  /><path
    class="cls-128"
    d="M304.37,207.89c1.12,1.39-.6,2.28-.59,3.48a11.85,11.85,0,0,1-2.23-8.16c.1-1.12.32-2.07,1.93-1.82C302.79,203.71,301.39,206.15,304.37,207.89Z"
    transform="translate(-68.57 -53.4)"
  /><path
    class="cls-129"
    d="M100.86,281.84c.43,1,.87,1.89,1.3,2.84.07,1.63-1.26,2.73-2.3,2.45-1.37-.37-1.23-2.33-1.47-3.6C98,281.6,100,282.32,100.86,281.84Z"
    transform="translate(-68.57 -53.4)"
  /><path
    class="cls-127"
    d="M488.94,106.06c.8-.17,1.08,0,1.18.45s.09,1.12-.36,1.25c-1.27.36-1.64,1.32-2.16,2.36s-1.35.83-2.16.2-.81-1.46-.19-1.94A36.53,36.53,0,0,1,488.94,106.06Z"
    transform="translate(-68.57 -53.4)"
  /><path
    class="cls-127"
    d="M490.35,102.28a2,2,0,0,1-.5-3.15c.3-.42.76-.7,1.12-.14C491.73,100.17,490.8,101.06,490.35,102.28Z"
    transform="translate(-68.57 -53.4)"
  /></svg>
